<svg width="86" height="91" viewBox="0 0 86 91" fill="none" xmlns="http://www.w3.org/2000/svg">
<path d="M71.7636 18.8253L66.2781 19.0407L58.1804 19.3584L40.403 9.39481L24.3594 10.2961L32.5145 16.6097L34.2377 17.9437L20.3729 21.1277L44.1307 31.5352L36.0822 51.1311L42.2432 78.8369L53.8763 40.8148L68.0776 32.5814L69.5729 27.0009L80.8127 32.5163L71.7636 18.8253Z" fill="#F488AB"/>
<path d="M67.3679 33.5489L68.7334 32.7572L70.2287 27.1767L81.4687 32.6922L72.4193 19.0011L66.9339 19.2165L58.9131 19.5313L67.3679 33.5489Z" fill="#F488AB"/>
<path d="M57.0369 15.9361L53.5515 35.0038L14.5622 17.9239L37.9746 12.5475L57.0369 15.9361Z" fill="#F9F3F5"/>
<path d="M57.0369 15.9362L72.2971 15.3372L68.1561 30.7916L32.2107 51.6312L53.5515 35.0038L57.0369 15.9362Z" fill="#F9F3F5"/>
<path d="M41.253 29.6164L53.5515 35.0038L32.2107 51.6312L41.253 29.6164Z" fill="white"/>
<path d="M72.297 15.3374L68.1561 30.7915L57.454 16.4935L57.0369 15.9362L72.297 15.3374Z" fill="white"/>
<path d="M52.2019 40.041L39.1325 82.7568L32.2108 51.6312L52.2019 40.041Z" fill="#F2D8E1"/>
<path d="M72.2971 15.3374L82.4631 30.7183L69.836 24.5223L72.2971 15.3374Z" fill="#F9F3F5"/>
<path d="M37.9747 12.5475L53.5516 35.0037L57.0369 15.9361L37.9747 12.5475Z" fill="white"/>
<path d="M72.4546 14.7495L69.9935 23.9344L72.0654 24.951L72.4546 14.7495Z" fill="#F2D8E1"/>
<path d="M57.037 15.9361L37.0651 4.7427L19.041 5.7551L30.1385 14.3469L37.9747 12.5475L57.037 15.9361Z" fill="#F9F3F5"/>
<path d="M57.0371 15.9362L36.8432 9.79189L28.203 12.8483L30.1385 14.347L37.9748 12.5476L57.0371 15.9362Z" fill="#F2D8E1"/>
</svg>
